<mxfile host="Electron" agent="Mozilla/5.0 (Windows NT 10.0; Win64; x64) AppleWebKit/537.36 (KHTML, like Gecko) draw.io/26.2.2 Chrome/134.0.6998.178 Electron/35.1.2 Safari/537.36" version="26.2.2">
  <diagram name="Pagina-1" id="mmno21J-cMGXl_ocijBH">
    <mxGraphModel dx="397" dy="234" grid="1" gridSize="10" guides="1" tooltips="1" connect="1" arrows="1" fold="1" page="1" pageScale="1" pageWidth="827" pageHeight="1169" math="1" shadow="0">
      <root>
        <mxCell id="0" />
        <mxCell id="1" parent="0" />
        <mxCell id="VrI8LA-xPY5d3StqOcEM-1" value="$$q$$" style="text;html=1;align=center;verticalAlign=middle;resizable=0;points=[];autosize=1;strokeColor=none;fillColor=none;fontColor=#3399FF;" parent="1" vertex="1">
          <mxGeometry x="380" y="359" width="60" height="30" as="geometry" />
        </mxCell>
        <mxCell id="JVjbrJdCBFGDCe7ASOgh-7" value="$$\mathbf{u}$$" style="text;html=1;align=center;verticalAlign=middle;resizable=0;points=[];autosize=1;strokeColor=none;fillColor=none;fontColor=#FF0000;" parent="1" vertex="1">
          <mxGeometry x="330" y="384" width="100" height="30" as="geometry" />
        </mxCell>
        <mxCell id="JVjbrJdCBFGDCe7ASOgh-1" value="" style="endArrow=classic;html=1;rounded=0;strokeColor=#009900;" parent="1" edge="1">
          <mxGeometry width="50" height="50" relative="1" as="geometry">
            <mxPoint x="400" y="360" as="sourcePoint" />
            <mxPoint x="400" y="260" as="targetPoint" />
          </mxGeometry>
        </mxCell>
        <mxCell id="JVjbrJdCBFGDCe7ASOgh-2" value="" style="ellipse;whiteSpace=wrap;html=1;fillColor=none;" parent="1" vertex="1">
          <mxGeometry x="340" y="336" width="120" height="50" as="geometry" />
        </mxCell>
        <mxCell id="JVjbrJdCBFGDCe7ASOgh-4" value="$$\mathbf{B}$$" style="text;html=1;align=center;verticalAlign=middle;resizable=0;points=[];autosize=1;strokeColor=none;fillColor=none;fontColor=#009900;" parent="1" vertex="1">
          <mxGeometry x="370" y="290" width="110" height="30" as="geometry" />
        </mxCell>
        <mxCell id="JVjbrJdCBFGDCe7ASOgh-6" value="" style="endArrow=classic;html=1;rounded=0;strokeColor=#FF0000;" parent="1" edge="1">
          <mxGeometry width="50" height="50" relative="1" as="geometry">
            <mxPoint x="398" y="386" as="sourcePoint" />
            <mxPoint x="358" y="386" as="targetPoint" />
          </mxGeometry>
        </mxCell>
        <mxCell id="JVjbrJdCBFGDCe7ASOgh-5" value="" style="ellipse;whiteSpace=wrap;html=1;aspect=fixed;strokeColor=none;fillColor=#3399FF;" parent="1" vertex="1">
          <mxGeometry x="397.5" y="384" width="5" height="5" as="geometry" />
        </mxCell>
      </root>
    </mxGraphModel>
  </diagram>
</mxfile>
